PathFileType	4	(X/Y/Z)	C:/Users/opensim2020/Desktop/walking_exp_matlab/subject02_walking06_straight_02.trc																																																																																																																									
DataRate	CameraRate	NumFrames	NumMarkers	Units	OrigDataRate	OrigDataStartFrame	OrigNumFrames																																																																																																																					
100	100	9	41	mm	100	1500	183																																																																																																																					
Frame#	Time	LFHD			RFHD			LBHD			RBHD			C7			T10			CLAV			STRN			RBAK			LSHO			LUPA			LELB			LFRM			LWRA			LWRB			LFIN			RSHO			RUPA			RELB			RFRM			RWRA			RWRB			RFIN			LASI			RASI			LPSI			RPSI			LTHI			LKNE			LTIB			LANK			LHEE			LTOE			RTHI			RKNE			RTIB			RANK			RHEE			RTOE			*39			*40		
		X1	Y1	Z1	X2	Y2	Z2	X3	Y3	Z3	X4	Y4	Z4	X5	Y5	Z5	X6	Y6	Z6	X7	Y7	Z7	X8	Y8	Z8	X9	Y9	Z9	X10	Y10	Z10	X11	Y11	Z11	X12	Y12	Z12	X13	Y13	Z13	X14	Y14	Z14	X15	Y15	Z15	X16	Y16	Z16	X17	Y17	Z17	X18	Y18	Z18	X19	Y19	Z19	X20	Y20	Z20	X21	Y21	Z21	X22	Y22	Z22	X23	Y23	Z23	X24	Y24	Z24	X25	Y25	Z25	X26	Y26	Z26	X27	Y27	Z27	X28	Y28	Z28	X29	Y29	Z29	X30	Y30	Z30	X31	Y31	Z31	X32	Y32	Z32	X33	Y33	Z33	X34	Y34	Z34	X35	Y35	Z35	X36	Y36	Z36	X37	Y37	Z37	X38	Y38	Z38	X39	Y39	Z39	X40	Y40	Z40	X41	Y41	Z41
																																																																																																																												
69	0.68	-70.73156	1741.4104	939.9101	-77.47996	1722.07117	1082.36084	-196.1676	1659.46643	923.38483	-214.89859	1637.57446	1064.31079	-248.48071	1522.01062	990.47736	-304.7099	1247.56616	998.64557	-110.0761	1451.19629	990.82092	-62.08304	1278.03589	1001.89142	-315.49899	1349.29102	1049.18469	-159.7587	1498.3866	818.73102	-107.97575	1312.60364	726.46527	-48.57614	1182.32422	707.03845	39.0491	1080.64648	716.93152	145.0007	1016.48285	780.15094	118.88387	989.60504	737.72693	174.84831	955.92944	745.46844	-188.77116	1486.2804	1181.63	-249.02289	1305.00928	1262.86877	-250.66209	1158.57288	1289.38782	-227.26036	1039.05688	1308.61816	-184.18724	910.96222	1288.17664	-230.21904	909.16803	1321.17163	-195.65778	844.83679	1321.51404	-86.16838	977.35663	868.51074	-77.66236	971.72345	1124.52405	-291.21906	1030.60864	956.48773	-293.1655	1030.0155	1070.59863	-187.91785	669.12189	837.35443	-253.11839	474.6091	874.91162	-337.86331	297.77744	881.65961	-366.37375	77.46817	929.97565	-404.88834	53.33545	982.46863	-212.43234	34.1615	918.70856	-92.07626	678.45618	1217.49512	-23.69024	481.15942	1189.39819	-36.54814	294.90884	1199.53296	-18.02391	101.44287	1173.46167	-30.39023	41.59486	1113.31909	133.87975	68.84383	1212.85669	-181.05711	1800.32739	1024.15491	-2845.76172	1034.00293	3357.32202
70	0.69	-60.5705	1740.25281	941.26416	-67.08537	1720.38	1083.93726	-185.93367	1657.90833	924.63513	-204.64059	1636.03235	1065.64063	-238.01436	1520.65076	991.54498	-294.76364	1246.30408	999.77875	-99.76752	1449.62415	991.89252	-52.07927	1276.33118	1002.66864	-305.42215	1348.03162	1050.04309	-149.33771	1497.23535	819.76593	-97.06724	1311.96375	726.95728	-36.77689	1182.21008	706.94727	52.84432	1081.54932	717.48969	159.11197	1019.52777	780.89648	133.78253	992.13696	738.77203	190.04407	959.3631	746.68567	-178.49455	1484.50049	1182.60815	-239.78671	1303.42896	1263.44885	-242.72913	1157.11304	1289.55737	-220.64804	1037.49121	1309.14502	-178.90189	908.77625	1288.6499	-225.11998	907.52197	1321.43762	-191.26907	842.78113	1321.96912	-77.04806	975.99548	869.40259	-67.55474	969.99402	1125.27319	-281.77527	1029.49988	957.89758	-283.14658	1028.56201	1072.02222	-182.35368	668.44269	837.55396	-248.71654	474.44388	875.18689	-335.33774	298.45059	881.92914	-366.1362	78.27557	929.92865	-405.04877	54.52156	982.29938	-212.16154	34.15434	918.26965	-82.85701	675.9942	1217.38525	-12.66314	479.62735	1187.90845	-17.15309	293.27457	1200.25476	9.68953	100.48403	1176.07227	-1.49346	39.558	1116.80615	164.3102	74.38148	1211.6322	-170.78397	1798.6532	1025.60669	-2845.13232	1033.90491	3360.2312
71	0.7	-50.02799	1738.56494	942.89294	-56.74109	1718.7948	1085.37378	-175.55084	1656.27356	926.12341	-194.28452	1634.45154	1066.93311	-227.53296	1519.14441	992.66864	-284.71671	1245.03735	1000.9953	-89.33954	1448.02991	992.99286	-41.97371	1274.62085	1003.65173	-294.98315	1346.61536	1050.35645	-138.78525	1496.00476	820.89905	-86.50849	1311.35608	727.40265	-25.29502	1181.75281	706.88324	65.70794	1082.60986	717.8551	172.96805	1022.28937	781.72784	147.804	994.23157	739.78717	204.38548	962.14563	747.71936	-168.10667	1482.5802	1183.74792	-230.37874	1301.79968	1264.1731	-234.59929	1155.66089	1289.828	-213.79883	1035.75305	1309.40125	-173.23251	906.68085	1289.29468	-219.8078	905.84406	1321.63623	-186.58006	840.76324	1322.46619	-67.95304	974.48145	870.24255	-57.23207	968.08868	1126.01636	-272.22873	1028.37891	959.48328	-272.97043	1027.03784	1073.65344	-176.55569	667.89563	837.79047	-244.01321	474.23422	875.52527	-332.70959	299.33954	882.125	-365.7561	79.15891	929.75903	-404.85834	55.73764	982.2348	-212.37839	34.17208	918.22363	-74.06668	673.37927	1216.83875	-2.00462	478.18622	1186.60083	1.54151	292.03748	1200.8479	36.62772	100.06651	1178.24463	26.26287	38.22373	1119.41821	193.23164	80.17105	1210.02661	-160.50261	1797.39905	1027.2312	-2845.05908	1033.91919	3360.17847
72	0.71	-39.70574	1737.15698	944.38965	-46.53437	1717.37415	1086.87964	-165.25832	1655.02209	927.60358	-183.95276	1632.85571	1068.3125	-217.06522	1517.81189	993.93744	-274.5752	1243.77197	1002.30823	-78.85007	1446.42004	994.16211	-31.82563	1272.93066	1004.7536	-284.67743	1345.24084	1051.47595	-128.17163	1494.64465	822.07697	-75.78825	1310.35913	728.05347	-13.88842	1180.92065	707.14862	78.1104	1082.94812	718.3916	186.54143	1024.78931	782.29718	161.56201	995.9079	740.96191	218.76906	964.50104	748.93921	-157.68898	1480.78088	1185.03235	-220.81052	1300.07263	1264.85046	-226.2328	1154.17017	1290.29211	-206.79129	1034.1366	1309.99536	-167.51042	904.63507	1289.98792	-213.94548	904.30725	1322.32703	-181.57196	838.77972	1323.08875	-58.61111	972.93365	871.08728	-46.68674	966.15283	1126.80969	-262.62518	1027.29285	961.24561	-262.63278	1025.53943	1075.4895	-170.5126	667.31067	838.16504	-239.14748	474.09836	875.78223	-329.88724	300.25488	882.30664	-365.34631	80.20761	929.5047	-404.66058	57.27219	982.15198	-212.32701	34.13698	918.03662	-65.39722	670.69391	1216.56274	8.46866	476.64264	1185.42676	19.50717	291.09766	1201.31628	62.61348	100.29656	1180.14453	53.19728	37.82211	1122.3468	220.89311	85.87864	1207.8728	-150.16478	1795.78784	1028.90112	-2845.07788	1033.97009	3360.31909
73	0.72	-29.42515	1736.0658	945.90448	-36.22369	1715.86267	1088.50464	-154.82095	1653.51123	929.12952	-173.5282	1631.17371	1069.75769	-206.37697	1516.20898	995.19122	-264.21893	1242.45386	1003.66193	-68.27165	1444.79785	995.47406	-21.42886	1271.24097	1005.83264	-274.20343	1343.84534	1052.98206	-117.48576	1493.22461	823.35223	-65.32217	1309.0575	728.72614	-3.03575	1179.89392	707.37305	90.38413	1082.97302	718.78894	199.58173	1026.67957	783.10565	174.17386	996.83112	742.00952	232.01178	966.37805	750.14722	-147.14066	1478.97888	1186.32825	-211.04117	1298.59534	1266.1123	-217.63065	1152.65967	1290.7865	-199.28667	1032.49304	1310.74915	-161.46507	902.51056	1290.6156	-207.88278	902.71997	1322.94983	-176.2505	836.84979	1323.71973	-49.22581	971.3175	872.03699	-35.96923	963.99481	1127.5968	-252.83884	1026.08667	963.172	-252.05066	1023.91107	1077.4342	-164.18323	666.81787	838.60046	-234.06093	474.03998	876.10339	-326.96991	301.37552	882.52618	-364.89749	81.38836	929.34113	-404.41037	58.84361	981.90167	-212.30402	34.08264	917.85699	-56.66537	668.05945	1216.67834	18.71823	474.99124	1184.13391	36.79923	290.37601	1201.46057	87.20642	100.88961	1181.26147	78.89723	37.98056	1123.98254	247.00874	91.22299	1205.62476	-139.8447	1794.28455	1030.52039	-2845.12842	1033.86975	3360.25122
74	0.73	-19.2734	1734.53943	947.52814	-25.82751	1714.41382	1090.17664	-144.40709	1652.17126	930.85278	-163.06262	1629.66528	1071.27686	-195.53667	1514.79077	996.66498	-253.69421	1241.05286	1005.10303	-57.61686	1443.23083	996.89868	-11.03357	1269.56128	1007.17371	-263.60938	1342.26355	1053.75037	-106.6799	1491.75452	824.73126	-55.33822	1307.65674	729.4848	7.29454	1178.76465	707.62238	101.52896	1082.62927	719.68231	211.5455	1027.91077	783.82703	186.57893	997.50439	743.2168	244.78116	967.79669	751.29303	-136.59825	1477.33325	1187.80603	-201.18665	1297.07397	1267.30896	-208.70203	1151.16772	1291.51538	-191.61978	1030.91064	1311.78833	-154.90343	900.49487	1291.58118	-201.48526	901.20142	1323.80566	-170.49823	834.78943	1324.53125	-39.71309	969.64087	872.77051	-25.15545	961.83575	1128.38318	-242.85115	1024.78577	965.17365	-241.40787	1022.31592	1079.57397	-157.72363	666.263	839.05188	-228.6179	473.96127	876.4162	-323.7807	302.50497	882.76746	-364.36557	82.70085	929.06396	-404.00607	60.59455	981.65369	-212.2596	34.03686	917.66541	-48.04488	665.43451	1216.4989	28.83983	473.14316	1182.9292	53.22822	289.8064	1201.4176	110.06689	101.63716	1181.62451	103.17636	38.6138	1124.69336	271.62207	95.45454	1202.9707	-129.60828	1792.59692	1032.08459	-2845.08423	1033.80334	3360.19897
75	0.74	-8.61848	1732.9967	949.49701	-15.32255	1712.90466	1092.06665	-133.96387	1650.52612	932.59265	-153.133	1628.93323	1075.96106	-184.92747	1513.37085	998.18036	-243.14986	1239.66211	1006.70288	-46.87859	1441.66272	998.41083	-0.39353	1267.98645	1008.48138	-252.86523	1340.75317	1055.06201	-95.86606	1490.30713	826.17114	-45.1045	1306.18213	730.45862	17.56167	1177.3241	708.17432	112.86269	1081.75464	720.68829	223.13319	1028.65674	784.58112	198.91943	997.62775	744.31268	257.20859	968.87939	752.27161	-125.87772	1475.52905	1189.27612	-191.22549	1295.41052	1268.22681	-199.57997	1149.67249	1292.40601	-183.59277	1029.27393	1312.47205	-148.09433	898.5127	1292.60999	-194.86418	899.62054	1324.4978	-164.58328	833.04681	1325.44397	-30.35114	967.9588	873.34125	-14.18552	959.73242	1129.09875	-232.81644	1023.44116	967.3454	-230.58484	1020.70856	1081.81458	-150.81897	665.71393	839.64325	-222.86789	473.88782	876.72162	-320.46005	303.74332	883.00513	-363.84222	84.12683	928.68048	-403.25891	62.41443	980.98059	-212.22461	33.95741	917.46606	-39.00597	663.03766	1216.69714	39.01522	471.24197	1181.8501	68.56874	289.15332	1200.71558	131.19133	102.40002	1181.65369	125.01096	39.51708	1125.07837	293.86938	99.09607	1200.66309	-119.29953	1791.08618	1033.90173	-2845.17871	1034.02478	3360.26221
76	0.75	1.75033	1731.68005	951.3288	-4.99999	1711.58337	1093.66992	-123.31289	1648.96216	934.37585	-142.18358	1626.8313	1076.745	-174.02937	1511.78723	999.73065	-232.42653	1238.16504	1008.49011	-36.05609	1440.11206	999.96735	10.37106	1266.37195	1009.88806	-242.21164	1339.31458	1056.98413	-84.97028	1488.80713	827.68341	-35.23114	1304.45459	731.47388	27.56486	1175.61694	708.93164	123.54391	1080.88989	721.60675	234.35336	1028.98999	785.40173	209.62839	997.30426	745.66498	268.4519	968.79694	753.71246	-114.97391	1473.75586	1190.9801	-181.07619	1293.97412	1269.59717	-190.1646	1148.2196	1293.46313	-175.39059	1027.68225	1313.43713	-141.04443	896.53387	1293.68787	-187.48845	898.10437	1325.57361	-158.09213	831.08899	1326.48413	-20.54089	966.39954	874.04712	-3.05893	957.73669	1129.77014	-222.54065	1021.9776	969.61768	-219.63907	1019.22491	1084.12646	-143.2153	665.2049	840.383	-216.79062	473.78711	877.08875	-316.91467	305.06833	883.56824	-363.13098	85.72767	928.37433	-403.39081	64.73125	980.91425	-212.18329	33.91262	917.28192	-29.22386	660.84473	1217.17688	49.65812	469.43518	1181.35632	82.81085	288.28351	1199.9126	149.93248	102.86932	1180.91211	144.63989	39.96405	1124.20837	313.06464	101.77922	1197.97632	-108.96883	1789.70764	1035.85132	-2845.10864	1033.71326	3360.21826
77	0.76	11.91277	1730.46716	952.88629	5.46991	1710.24304	1095.58911	-112.82876	1647.44604	936.28583	-131.94432	1625.68945	1079.61011	-163.16832	1510.28638	1001.52942	-221.52988	1236.71704	1010.4068	-25.13863	1438.5863	1001.68982	21.21385	1264.80042	1011.27576	-231.35878	1337.84802	1058.73877	-74.09671	1487.32007	829.34711	-25.51288	1302.69739	732.70074	37.11699	1173.82751	709.86841	133.72581	1079.29053	722.74872	244.99846	1028.71936	786.24634	220.26851	996.53729	747.13428	279.42801	968.67688	754.77905	-104.19363	1472.11108	1192.64087	-170.76631	1292.5249	1270.87976	-180.60323	1146.91626	1294.7616	-166.80486	1026.18542	1314.73413	-133.56738	894.61975	1294.93958	-180.30629	896.72296	1326.81958	-151.39911	829.48608	1327.65784	-10.42847	964.8634	875.01184	8.23678	955.90442	1130.48511	-212.17113	1020.4682	971.98352	-208.49799	1017.7204	1086.48743	-135.86275	664.58582	840.9184	-210.37749	473.66357	877.50598	-312.88342	306.45569	883.80194	-362.39191	87.50735	928.00446	-402.771	66.89999	980.51508	-212.06686	33.85584	917.08075	-18.65913	658.92181	1217.22461	61.11066	467.93597	1181.2135	96.12708	287.07202	1198.97449	165.90518	102.69411	1179.42944	161.22363	39.70509	1122.49817	329.28827	103.41795	1195.6095	-98.73022	1788.00378	1037.61511	-2845.22803	1033.82275	3360.30176
